<?xml version="1.0" standalone="no"?>
<!DOCTYPE svg PUBLIC "-//W3C//DTD SVG 20010904//EN"
 "http://www.w3.org/TR/2001/REC-SVG-20010904/DTD/svg10.dtd">
<svg version="1.0" xmlns="http://www.w3.org/2000/svg"
 width="299.000000pt" height="299.000000pt" viewBox="0 0 299.000000 299.000000"
 preserveAspectRatio="xMidYMid meet">
<metadata>
Created by potrace 1.11, written by Peter Selinger 2001-2013
</metadata>
<g transform="translate(0.000000,299.000000) scale(0.100000,-0.100000)"
fill="#000000" stroke="none">
<path d="M1345 2853 c-95 -12 -210 -38 -289 -64 -381 -126 -696 -425 -841
-796 -15 -40 -34 -73 -40 -73 -22 0 -69 -155 -123 -405 -43 -197 -45 -205 -35
-205 4 -1 24 -3 44 -6 25 -4 41 0 51 10 16 15 20 3 45 -134 19 -110 112 -320
196 -445 201 -300 522 -511 883 -581 97 -19 333 -25 443 -11 74 9 230 49 299
76 326 129 594 374 743 678 18 37 34 70 36 72 1 2 14 -4 29 -14 26 -17 27 -17
45 6 23 31 99 307 125 453 3 17 10 50 16 73 15 60 7 73 -45 73 -24 0 -48 -5
-55 -12 -7 -7 -12 -8 -13 -2 -15 271 -91 500 -237 717 -49 72 -133 170 -182
213 -14 12 -42 38 -62 57 -136 125 -407 259 -598 296 -30 6 -68 13 -85 17 -36
7 -308 13 -350 7z"/>
</g>
</svg>
